<?xml version="1.0" encoding="UTF-8"?>
<svg version="1.1" xmlns="http://www.w3.org/2000/svg" width="21" height="22">
<path d="M0 0 C6.93 0 13.86 0 21 0 C21 7.26 21 14.52 21 22 C14.07 22 7.14 22 0 22 C0 14.74 0 7.48 0 0 Z " fill="#7A4314" transform="translate(0,0)"/>
<path d="M0 0 C0.99 0.66 1.98 1.32 3 2 C2.67 2.99 2.34 3.98 2 5 C2 5.99 2 6.98 2 8 C1.34 8.66 0.68 9.32 0 10 C-0.64767793 12.57061311 -0.64767793 12.57061311 -1 15 C-0.34 15 0.32 15 1 15 C1 13.68 1 12.36 1 11 C1.66 11 2.32 11 3 11 C3.33 9.68 3.66 8.36 4 7 C4 10.63 4 14.26 4 18 C-2.93 18 -9.86 18 -17 18 C-17 13.05 -17 8.1 -17 3 C-16.34 3.66 -15.68 4.32 -15 5 C-14.34 3.68 -13.68 2.36 -13 1 C-12.34 1 -11.68 1 -11 1 C-11.33 3.31 -11.66 5.62 -12 8 C-11.34 8 -10.68 8 -10 8 C-9.01 9.485 -9.01 9.485 -8 11 C-7.01 11 -6.02 11 -5 11 C-4.34 11.33 -3.68 11.66 -3 12 C-2.95101563 11.21753906 -2.90203125 10.43507813 -2.8515625 9.62890625 C-2.77679688 8.61699219 -2.70203125 7.60507813 -2.625 6.5625 C-2.55539062 5.55316406 -2.48578125 4.54382813 -2.4140625 3.50390625 C-2.27742187 2.67761719 -2.14078125 1.85132813 -2 1 C-1.34 0.67 -0.68 0.34 0 0 Z " fill="#512305" transform="translate(17,4)"/>
<path d="M0 0 C0.66 0 1.32 0 2 0 C1.67 2.31 1.34 4.62 1 7 C1.66 7 2.32 7 3 7 C3.33 9.31 3.66 11.62 4 14 C2 13 2 13 1 10 C0.34 9.67 -0.32 9.34 -1 9 C-1 8.01 -1 7.02 -1 6 C-1.66 7.32 -2.32 8.64 -3 10 C-2.34 10 -1.68 10 -1 10 C-1 11.32 -1 12.64 -1 14 C1.475 14.99 1.475 14.99 4 16 C4 16.33 4 16.66 4 17 C1.36 17 -1.28 17 -4 17 C-4 12.05 -4 7.1 -4 2 C-3.34 2.66 -2.68 3.32 -2 4 C-1.34 2.68 -0.68 1.36 0 0 Z " fill="#5A2915" transform="translate(4,5)"/>
<path d="M0 0 C2.31 0 4.62 0 7 0 C7.33 1.32 7.66 2.64 8 4 C7.01 4 6.02 4 5 4 C5.83333333 6.16666667 5.83333333 6.16666667 8 7 C7.67 8.32 7.34 9.64 7 11 C6.401875 10.835 5.80375 10.67 5.1875 10.5 C2.88655664 9.8885876 2.88655664 9.8885876 0 10 C-0.33 8.68 -0.66 7.36 -1 6 C-0.01 5.67 0.98 5.34 2 5 C1.01 4.34 0.02 3.68 -1 3 C-0.67 2.01 -0.34 1.02 0 0 Z " fill="#CB8923" transform="translate(7,5)"/>
<path d="M0 0 C2.31 0 4.62 0 7 0 C7 0.66 7 1.32 7 2 C8.98 2 10.96 2 13 2 C13 2.66 13 3.32 13 4 C10.03 4 7.06 4 4 4 C3.87625 4.804375 3.7525 5.60875 3.625 6.4375 C3.41875 7.283125 3.2125 8.12875 3 9 C2.01 9.495 2.01 9.495 1 10 C-0.1577506 6.52674819 -0.06866652 3.63932552 0 0 Z " fill="#7C4618" transform="translate(0,0)"/>
<path d="M0 0 C0.33 0.66 0.66 1.32 1 2 C0.67 2.66 0.34 3.32 0 4 C0.99 4.33 1.98 4.66 3 5 C3.33 5.99 3.66 6.98 4 8 C4.66 7.34 5.32 6.68 6 6 C9 7 9 7 10 9 C10.66 8.67 11.32 8.34 12 8 C11.34 9.32 10.68 10.64 10 12 C5.7774565 12.3619323 3.33045394 11.66436316 0 9 C0 7.68 0 6.36 0 5 C-0.66 5 -1.32 5 -2 5 C-1.125 1.125 -1.125 1.125 0 0 Z " fill="#8C5A11" transform="translate(3,10)"/>
<path d="M0 0 C0.66 0 1.32 0 2 0 C1.67 2.31 1.34 4.62 1 7 C1.66 7 2.32 7 3 7 C3.33 9.31 3.66 11.62 4 14 C2 13 2 13 1 10 C0.34 9.67 -0.32 9.34 -1 9 C-1 8.01 -1 7.02 -1 6 C-1.99 6.495 -1.99 6.495 -3 7 C-2.690625 6.401875 -2.38125 5.80375 -2.0625 5.1875 C-0.89790296 2.91043228 -0.89790296 2.91043228 0 0 Z " fill="#471D02" transform="translate(4,5)"/>
<path d="M0 0 C0.33 0 0.66 0 1 0 C1 3.63 1 7.26 1 11 C-0.98 11 -2.96 11 -5 11 C-4.67 10.34 -4.34 9.68 -4 9 C-3.34 9 -2.68 9 -2 9 C-2 7.35 -2 5.7 -2 4 C-1.34 4 -0.68 4 0 4 C0 2.68 0 1.36 0 0 Z " fill="#572917" transform="translate(20,11)"/>
<path d="M0 0 C2.31 0 4.62 0 7 0 C7.33 1.32 7.66 2.64 8 4 C5.03 4 2.06 4 -1 4 C-0.67 2.68 -0.34 1.36 0 0 Z " fill="#EBCA3F" transform="translate(7,5)"/>
<path d="M0 0 C0.99 0 1.98 0 3 0 C3 0.66 3 1.32 3 2 C4.98 2 6.96 2 9 2 C9 2.66 9 3.32 9 4 C5.7 4.33 2.4 4.66 -1 5 C-0.67 3.35 -0.34 1.7 0 0 Z " fill="#B07B2D" transform="translate(4,0)"/>
<path d="M0 0 C0.99 0 1.98 0 3 0 C3 1.32 3 2.64 3 4 C2.34 4 1.68 4 1 4 C1 5.32 1 6.64 1 8 C0.34 8 -0.32 8 -1 8 C-0.67 5.36 -0.34 2.72 0 0 Z " fill="#946610" transform="translate(17,11)"/>
</svg>
